<?xml version="1.0" encoding="UTF-8"?>
<svg id="Layer_9" data-name="Layer 9" xmlns="http://www.w3.org/2000/svg" viewBox="0 0 792 612">
  <defs>
    <style>
      .cls-1 {
        fill: #000;
      }

      .cls-1, .cls-2, .cls-3 {
        stroke-width: 0px;
      }

      .cls-2 {
        fill: #231f20;
      }

      .cls-4 {
        stroke: #231f20;
        stroke-miterlimit: 10;
      }

      .cls-4, .cls-5 {
        fill: none;
        stroke-linecap: round;
        stroke-width: 5px;
      }

      .cls-3 {
        fill: #020404;
      }

      .cls-5 {
        stroke: #020404;
        stroke-linejoin: round;
      }
    </style>
  </defs>
  <path class="cls-1" d="M216.75,203.72c-.05.07,0,.14.1.19.82.25,1.33-.02,2.08-.21,1.53-.56,3.23-1.71,4.06-3.06.09-.15.15-.26.19-.3.03-.03.07,0,.12.04.04.05.11.08.11.03-.02-.03-.1-.09-.14-.15-.07-.14-.3-.25-.44-.36-2.96-1.38-6.79-.57-9.93.37-6.46,1.95-10.16,5.93-9.75,12.78.4,9.23,7.99,11.57,16.12,11.3,12.76-.7,24.75-8.81,36.21-14.51,12.61-6.36,29.27-11.65,42.52-3.68,0,0,4.67,2.47,4.67,2.47l-5.1,2.13c-16.01,6.77-27.07,21.26-36.48,35.5-13.01,20.28-25.15,42.54-45.46,56.91-3.22,2.23-6.64,4.27-10.2,5.92-2.28,1.11-4.49,2.03-7.18,2.37-6.63,1.16-13.98-4.64-12.78-11.74,1.33-7.83,10.5-9.62,16.8-7.23,6.38,2.18,11.11,6.52,16.74,9.6,7.46,4.64,15.8,7.27,24.47,8.14,8.43.86,16.7.75,25.08-.23,5.19-.76,10.86-1.2,14.47-5.25,2.04-2.37,2.98-6.98.79-9.51-.25-.31-.55-.48-.88-.61-.91-.28-2.31.29-2.55,1.17-.21.53.24.86.73.91.05,2.76-2.15,5.04-4.91,5.09-2.76.05-5.04-2.15-5.09-4.91.29-1.46.72-2.91,1.55-4.12,2.04-3.21,6.04-4.89,9.72-4.31,8.83,1.52,9.34,13.34,5.07,19.53-3.86,5.83-10.64,8.64-17.03,10.63-9.24,2.92-19.4,2.82-28.67.19-6.19-1.77-11.99-4.5-17.41-7.66-5.29-2.96-10.13-6.69-15.85-8.5-2.75-.86-5.51-1.3-8.04-1.41-1.67-.04-4.13-.13-5.51.56-.38.18-.42,0-.79.21-.47.2-.68.97-.6,1.57,1.13,6.98,12.03-.34,15.19-2.38,5.97-4.11,10.93-9.4,15.33-15.2,17.9-24.12,29.09-54.61,54.61-72.32,5.28-3.54,11.17-6.39,17.43-7.71l-.43,4.6c-2.87-1.27-5.92-1.92-9-2.06-20.93-.18-36.3,17.3-55.57,23.31-9.28,3.13-20.63,3.72-29.22-1.88-12.39-8.53-8.87-22.42,1.75-30.53,5.54-3.89,12.21-6.38,19.12-5.74,2.73.37,5.59,1.78,6.67,4.51,1.77,5.22-2.4,10.03-6.29,12.87-2.27,1.57-4.52,2.61-7.67,2.56-2.74-.35-4.67-2.86-4.32-5.6.35-2.74,2.86-4.67,5.6-4.32h0Z"/>
  <path class="cls-2" d="M383.98,204.89c-8.43,11.66-22.72,15.49-36.28,11.95-7.94-1.98-14.91-5.05-22.73-5.9-1.35-.14-4.08-.31-5.44-.32-5.7-.07-12.48,1.91-15.42,6.92-.07.1-.1.04-.21.03-.69,0,.47.71,1.13.83,1.49.22,2.55,1.63,2.17,3.12-.34,1.5-1.82,1.98-3.17,1.97-2.24.09-4.49-.78-5.77-2.78-2.26-3.71-.46-8.15,1.81-11.11,4.76-6.05,12.07-8.75,19.4-8.93,6.54-.11,13.35,1.26,19.36,3.34,11.49,4.15,21.11,8.21,32.09,3.57,3.41-1.43,6.65-3.51,9.4-6.01,2.21-1.88,5.34.93,3.66,3.33h0Z"/>
  <path class="cls-2" d="M368.58,259.74c-13.53,10.69-32.94,10.9-48.46,4.85,0,0-5.36-1.95-5.36-1.95-1.67-.67-4.01-1.18-5.75-1.68-.43-.06-1.49-.25-1.93-.31-7.49-1.36-15.47-.46-22.27,3.07-1.51.76-2.97,1.73-4.36,2.67,0,0-.8.4-.8.4-1.21.6-2.67.11-3.27-1.1-.57-1.08-.06-2.24.54-3.11,1.04-1.67,2.31-3.16,3.75-4.49,6.53-6.22,16-8.62,24.83-7.75.95,0,2.3.33,3.24.47.92.18,2.31.36,3.19.64,4.83,1.17,9.84,3.36,14.27,5.18,10.97,4.12,23.3,5.02,34.49,1.17,1.77-.63,3.53-1.35,5.2-2.21,2.63-1.27,4.94,2.3,2.66,4.17h0Z"/>
  <path class="cls-2" d="M647.33,259.74c-13.53,10.69-32.94,10.9-48.46,4.85,0,0-5.36-1.95-5.36-1.95-1.67-.67-4.01-1.18-5.75-1.68-.43-.06-1.49-.25-1.93-.31-7.49-1.36-15.47-.46-22.27,3.07-1.51.76-2.97,1.73-4.36,2.67,0,0-.8.4-.8.4-1.21.6-2.67.11-3.27-1.1-.57-1.08-.06-2.24.54-3.11,1.04-1.67,2.31-3.16,3.75-4.49,6.53-6.22,16-8.62,24.83-7.75.95,0,2.3.33,3.24.47.92.18,2.31.36,3.19.64,4.83,1.17,9.84,3.36,14.27,5.18,10.97,4.12,23.3,5.02,34.49,1.17,1.77-.63,3.53-1.35,5.2-2.21,2.63-1.27,4.94,2.3,2.66,4.17h0Z"/>
  <path class="cls-2" d="M339.82,210.17c-6.79,14.41-9.54,30.63-13.23,46.2-4.05,17.85-8.54,36.73-17.88,53.38-3.2,5.69-9.94,12.11-16.96,8.57-4.51-2.63-2.62-8.67,1.29-10.76,4.8-2.75,9.95-1.52,14.65.28,5.45,1.92,11.27,3.23,16.91,3.94,7.4.98,14.67.57,21.8-1.54,3.58-1.1,7.05-2.75,10.67-4.55,2.41-1.23,4.82,1.86,3.06,3.89-5.72,7.16-14.5,11.46-23.55,12.43-11.74,1.33-23.22-2.56-33.25-8.26-2.55-1.56-7.45-3-9.04.11-.07-.05.08.21.68.32,11.27,1.03,14.83-27.48,16.78-36.02,1.51-8.01,3.2-16.05,5.17-24.08,2.98-12.08,6.38-24.38,11.88-35.72,1.9-3.82,4.07-7.59,6.86-10.97.88-1.07,2.47-1.22,3.54-.34.93.77,1.17,2.07.63,3.1h0Z"/>
  <path class="cls-2" d="M654.81,204.89c-8.43,11.66-22.72,15.49-36.28,11.95-7.94-1.98-14.91-5.05-22.73-5.9-1.35-.14-4.08-.31-5.44-.32-5.7-.07-12.48,1.91-15.42,6.92-.07.1-.1.04-.21.03-.69,0,.47.71,1.13.83,1.49.22,2.55,1.63,2.17,3.12-.34,1.5-1.82,1.98-3.17,1.97-2.24.09-4.49-.78-5.77-2.78-2.26-3.71-.46-8.15,1.81-11.11,4.76-6.05,12.07-8.75,19.4-8.93,6.54-.11,13.35,1.26,19.36,3.34,11.49,4.15,21.11,8.21,32.09,3.57,3.41-1.43,6.65-3.51,9.4-6.01,2.21-1.88,5.34.93,3.66,3.33h0Z"/>
  <path class="cls-2" d="M610.66,210.17c-6.79,14.41-9.54,30.63-13.23,46.2-4.05,17.85-8.54,36.73-17.88,53.38-3.2,5.69-9.94,12.11-16.96,8.57-4.51-2.63-2.62-8.67,1.29-10.76,4.8-2.75,9.95-1.52,14.65.28,5.45,1.92,11.27,3.23,16.91,3.94,7.4.98,14.67.57,21.8-1.54,3.58-1.1,7.05-2.75,10.67-4.55,2.41-1.23,4.82,1.86,3.06,3.89-5.72,7.16-14.5,11.46-23.55,12.43-11.74,1.33-23.22-2.56-33.25-8.26-2.55-1.56-7.45-3-9.04.11-.07-.05.08.21.68.32,11.27,1.03,14.83-27.48,16.78-36.02,1.51-8.01,3.2-16.05,5.17-24.08,2.98-12.08,6.38-24.38,11.88-35.72,1.9-3.82,4.07-7.59,6.86-10.97.88-1.07,2.47-1.22,3.54-.34.93.77,1.17,2.07.63,3.1h0Z"/>
  <path class="cls-2" d="M126.44,164.34c-5.89,12.9-8.85,26.93-11.94,40.78-4.61,21.14-8.28,42.9-14.31,63.9-5.3,17.4-17.33,49.63-34.63,57.67-3.94,1.67-8.41,2.65-12.66,1.59-5.9-1.6-8.34-8.84-5.12-13.95,5.32-8.63,17.62-7.18,25.69-4.75,7.05,2.32,13.62,4.69,20.71,6.58,32.99,8.99,69.65,14,99.78-5.96,1.17-.77,2.76-.44,3.52.75.61.94.5,2.14-.16,2.96-4.81,5.92-10.93,10.9-17.75,14.75-23.98,13.38-53.45,11.88-78.97,4.18-7.2-2.22-14.25-4.91-21.1-8.01-5.97-2.57-12.26-6.4-18.6-6.88-2.79-.21-5.12.3-6.32,1.17-2.33,1.71-.68,4.45,1.98,4.49,16.12,0,22.02-24.54,25.12-37.2,3.11-14,5.92-28.1,9.37-42.1,5.14-21.25,10.34-43.1,19.45-63.31,3.17-6.86,6.85-13.6,11.8-19.41.91-1.05,2.5-1.17,3.55-.26.89.76,1.11,2.01.62,3.02h0Z"/>
  <path class="cls-2" d="M132.64,244.82c4.74,26.46-3,61.37-11.32,86.77-6.86,22.5-31.78,70.46-58.83,70.34-9.2.11-12.94-10.35-6.15-16.53,8.66-7.42,20.75-3.15,30.05.15,4.96,1.69,10,3.16,15.05,4.49,26.1,6.51,54.06,11.3,79.94,2.41,6.34-2.19,12.46-5.24,18.39-9.02,1.18-.75,2.74-.4,3.49.77.6.94.5,2.13-.17,2.95-4.72,5.85-10.73,10.79-17.41,14.62-26.98,15.09-60.47,11.71-88.34,1.02-5.2-1.96-10.26-4.18-15.29-6.51-4.1-2.03-9.33-4.55-13.68-5.24-2.87-.53-5.66-.66-7.59.19-3.64,1.55-2.38,5.97,1.67,5.68,15.04-1.01,24.12-18.8,29.84-31.02,5.63-12.75,10.23-25.95,14.83-39.13,6.75-19.92,12.61-40.33,17.13-60.91,1.47-6.89,2.81-13.83,3.39-20.72.23-2.75,4.32-3.21,4.98-.33h0Z"/>
  <path class="cls-4" d="M652.86,203.33s-8.39,10.53-22.57,10.53-22.82-8.22-39.78-8.22-24.42,15.26-14.65,15.26"/>
  <path class="cls-2" d="M441.97,263c-1.28,6.04-2.79,12.08-4.95,17.93-3.29,8.78-8.18,17.03-14.21,24.26-7.36,8.64-17.36,16.89-29.35,16.96-17.97-.32-23.94-20.75-24.37-35.58-.73-20.95,3.73-42.25,15.32-60.06,5.23-8.08,11.73-15.5,20.14-20.47,9.28-5.75,21.75-6.58,29.67,2.05,12.29,13.18,10.92,38.39,7.76,54.91h0ZM434.08,261.14c2.91-10.92,4.56-22.77,1.92-33.81-1.68-7.16-5.38-15.37-13.06-17.16-12.71-2.17-23.85,12.02-30.15,21.71-12.04,19.89-23.65,50.23-13.5,72.81,7.11,15.01,20.83,11.06,30.71.84,7.9-7.93,13.4-18.11,18.08-28.28,2.4-5.19,4.52-10.55,6.01-16.1h0Z"/>
  <path class="cls-2" d="M413.82,361.56c-1.2,5.94-3.13,11.9-6.34,17.1-4.97,8.18-14.06,18.09-24.84,15.47-9.82-3.31-11.04-15.14-11.28-23.83.09-10.4,2.63-21.03,8.49-29.74,5.57-9,19.1-19.95,28.9-10.03,2.77,2.91,3.78,6.48,4.76,10.17,1.83,6.86,1.6,13.98.3,20.86h0ZM406.77,359.9c.84-2.97,1.47-5.99,1.82-9.04.4-4.45.67-9.17-1.5-13.16-1.63-3.37-4.9-5.76-8.63-4.38-9.72,3.4-16.44,18.77-19.52,28.19-1.62,5.84-2.87,12.2-1.6,18.17.88,4.84,4.57,10.71,10.16,8.65,9.8-3.52,16.28-18.92,19.27-28.43h0Z"/>
  <path class="cls-1" d="M545.13,313.13c-1.61,4.19-5.61,5.91-9.32,7.45-5.34,2.17-14.17,2.25-14.97-5.37-.26-2.59,1.11-6.12,1.68-8.51.84-3.11,1.76-6.21,2.64-9.31,4.88-17.18,11.6-38.36,17.23-55.41,3.25-9.64,6.84-20.1,10.35-29.69.36-1.01.51-1.46.6-2.34,0-.02.18.15.18.08-2.8-1.59-11.11,1.47-12.54,4.38-1.48,2.49-5.29.79-4.52-1.93,2.15-6.79,14.83-12.52,21.13-8.7,4.92,3.16,3.61,8.78,2.21,13.31,0,0-2.64,9.31-2.64,9.31-4.88,17.18-11.62,38.36-17.26,55.4-3.62,10.98-7.65,21.98-11.43,32.89,0,.13-.09-.15-.26-.22-.15-.07-.04.1.33.22,1.65.47,3.58.19,5.43-.2,2.18-.46,4.83-1.5,6.41-2.88.42-1.32,1.83-2.04,3.14-1.62,1.32.42,2.04,1.83,1.62,3.14h0Z"/>
  <path class="cls-1" d="M314.86,389.11c-1.35,3.56-5.8,5.23-9.23,5.63-4.32.47-7.44-2.97-6.16-7.23,4.79-17.75,10.65-36.12,16.9-53.41,0,0,.46-1.25.46-1.25.14-.37.18-.5.23-.66.02-.09.03-.14.11.09.07.22.37.58.59.67.22.1.24.04.13,0-.13-.04-.35-.06-.61-.07-1.41.05-3.2.65-4.34,1.5-.17.12-.26.23-.25.1-1.09,3.13-5.69,1.63-4.76-1.52,1.43-4.04,6.65-6.47,10.72-6.29,3.27.19,5.52,3.12,5.08,6.32-.28,2.16-1.63,6.22-2.17,8.35-3.77,13.23-8.38,27.64-12.96,40.61,0,0-1.8,5.02-1.8,5.02l-.9,2.43c-.08.17-.08.25-.11.14,0-.14-.18-.63-.5-.89-.31-.25-.46-.22-.39-.18,1.53.38,3.68-.3,5.06-1.05.18-.08.23-.22.12.16,1.09-3.13,5.69-1.63,4.76,1.52h0Z"/>
  <path class="cls-1" d="M270.25,391.23c-.66,1.78-1.44,2.22-2.6,3.11-1.75,1.1-3.35,1.75-5.47,1.97-3.97.46-6.85-2.81-5.69-6.7,3.89-14.94,8.72-30.01,14.08-44.48,0,0,.39-1.04.39-1.04.11-.3.14-.36.18-.45.02-.02.02,0,.12.31.09.29.44.71.72.84.28.14.38.1.34.07-1.15-.24-2.75.37-3.74.97-.12.06-.16.12-.13-.08-.42,1.32-1.83,2.04-3.14,1.62-1.32-.42-2.04-1.83-1.62-3.14.79-2.4,2.67-3.61,4.69-4.64,5.28-2.68,10.97.23,9.08,6.57-2.65,10.17-5.96,20.79-9.29,30.79-1.38,4.05-2.96,8.51-4.46,12.54,0,0-.77,2.01-.77,2.01-.06.1-.04.1-.08-.09,0-.21-.22-.78-.59-1.09-.37-.31-.59-.3-.59-.28,0,.02.11.08.3.09,1.05.09,2.56-.3,3.51-.77.13-.03.12-.11,0,.34,1.09-3.12,5.69-1.64,4.76,1.52h0Z"/>
  <path class="cls-1" d="M320.24,389.8s19.92-58.76,19.93-58.77c1.11-3.06,5.67-1.59,4.75,1.57,0,.02-18.97,59.06-18.98,59.09-1.31,3.75-6.88,1.94-5.7-1.88h0Z"/>
  <path class="cls-1" d="M349.89,389.95s19.45-60.55,19.46-60.58c1.29-3.72,6.83-1.98,5.71,1.83-.02.06-20.4,60.25-20.42,60.31-1.11,3.06-5.67,1.59-4.75-1.57h0Z"/>
  <path class="cls-1" d="M586.52,389.11c-1.35,3.56-5.79,5.24-9.23,5.63-4.33.48-7.45-2.97-6.17-7.23,4.35-16.15,9.56-32.62,15.12-48.38.79-2.27,1.68-4.68,2.49-6.93.02-.09.03-.15.1.09.07.22.37.58.58.67.21.1.24.04.13,0-1.59-.25-3.64.52-4.95,1.44-.17.12-.26.24-.25.11-1.09,3.13-5.69,1.63-4.76-1.52,1.81-5.49,12.98-9.55,15.52-2.7.72,2.21.06,3.99-.45,5.94-2.35,8.57-4.93,17.07-7.6,25.54-2.55,7.91-5.74,17.48-8.58,25.22,0,0-.9,2.43-.9,2.43-.08.17-.08.25-.12.13,0-.14-.18-.64-.5-.89-.31-.25-.46-.22-.39-.19,1.25.35,3.1-.17,4.33-.68.28-.12.56-.26.74-.36.18-.08.23-.22.12.16,1.09-3.13,5.69-1.63,4.76,1.52h0Z"/>
  <path class="cls-1" d="M524.38,328.93c-.46.09-1.36.46-1.61.59.59-.56.68-1.62.28-2.3,0,0-.17-.26-.17-.26-.04-.06-.09-.11-.15-.16l-.16-.13s-.08-.04-.06-.03c.05.01.06.03.12.06,14.09,3.24,30.53-2.22,42.93,7.52,8.5,6.6,9.28,18.71,6.89,28.4-2.42,10.9-9.18,20.71-18.29,27.05-7.43,5.42-17.24,6.37-25.68,2.67-2.35-1.01-4.47-2.38-6.35-3.62-1.76-1.07-3.6-2.38-5.58-2.03-.09.04-.07.03-.1.06-.08.04-.16.58.08,1.05.22.48.59.82,1.01.96.72.3,2-.12,2.8-.62.07-.05-.02-.03,0-.02-.02.06.03-.03.06-.06,3.07-4.65,4.1-10.52,5.6-16,3.5-13.32,7.68-26.31,12.97-39.08,1.22-2.68,5.25-1.45,4.78,1.44-2.5,13.47-5.73,27.16-11.05,39.91-1.9,4.32-3.82,8.53-5.94,12.79-.74,1.39-1.48,2.95-2.63,4.27-.87.99-1.99,1.54-3.24,1.99-5.55,2.27-11.62-3.41-8.82-9.1,1.86-3.44,6.5-3.15,9.47-1.81,3.19,1.45,5.98,3.66,9.04,4.8,10.83,4.18,19.78-.85,26.69-9.39,4-4.9,7.05-10.64,8.37-16.85,1.8-7.66,2.61-17.02-3.61-22.68-6.62-5.81-16.1-5.59-24.5-5.7-4.75-.09-9.28-.16-14.08-.82-2.34-.3-5.65-1.32-4.98-4.39.59-2.01,2.79-2.76,4.55-3.34,3.28-.89,4.6,3.9,1.34,4.82h0Z"/>
  <path class="cls-3" d="M451.2,394.03c-6.2-.82-11.79-2.39-17.89-2.62-5.77-.32-11.5.55-16.9,2.56-1.29.54-2.78-.1-3.26-1.42.37-13.8,24.94-37.74,34.11-48.53,3.84-4.49,8.09-9.24,10.52-14.48,0,0,3.14,3.09,3.14,3.09-7.72,2.27-15.62,1.56-23.34.67-5.44-.58-10.92-1.76-16.24-1.51-.99.14-2,.17-2.45.84,0,0-1.39,1.04-1.39,1.04-.97.73-2.35.54-3.09-.44-.82-1.05-.32-2.29.24-3.3,1.23-2.12,4.09-3,6.25-3.13,12.9-.37,25.92,4.67,38.54,1.04,1.91-.76,3.83,1.19,3.14,3.09-4,16.65-29.59,38.81-40.08,53.88-1.78,2.45-3.36,4.98-4.58,7.57,0,0-3.27-3.1-3.27-3.1,6.01-2.25,12.53-3.24,18.91-2.88,6.12.21,12.38,1.85,18.25,2.65,3.25.45,2.7,5.28-.59,4.96h0Z"/>
  <path class="cls-2" d="M223.38,148.85c8.6,4.13,13.37,11.69,6.13,19.7-5.21,5.68-12.62,8.33-19.8,9.84-6.84,1.48-14.04,1.96-21.02,2-13.8-.06-27.49-3.45-40.65-6.23-9.01-1.85-18.09-3.19-27.27-3.53-11.42-.66-27.34.81-35.57,9.15-.23.23-.32.42-.5.63-.06.09-.09.17-.15.25-.07.09-.1.15-.12.2-.12.25-.22.19-.31.25-.07.08.06.41.49.74.92.68,2.75,1.21,4.45,1.49,1.37.24,2.28,1.54,2.04,2.91-.3,1.93-2.25,2.17-3.84,2.22-1.8.1-3.62-.04-5.38-.65-5.81-2.09-6.52-8.3-3.45-13.26,1.67-2.78,4.13-5.17,6.6-7.02,12.35-9.03,27.57-10.53,42.12-9.55,17.56.79,34.35,7.33,51.2,11.19,12.52,2.83,36.57,4.61,46.21-5.02,1.18-1.39,2-2.89,1.14-4-1.1-1.12-3.32-1.86-4.94-1.67-6.35-1.93-3.79-11.19,2.62-9.65h0Z"/>
  <path class="cls-2" d="M54.43,247.38c4.28-.16,6.9,4.23,5.4,7.91-1.81,4.61-6.9,6.01-11.31,6.21-3.92.01-7.95-.07-10.81-3.64-2.13-2.82-1.62-6.95-.07-9.76,7.13-12.12,27.42-16.57,40.41-17.27,18.25-1.31,36.71,3.96,53.94,8.42,15.59,3.93,31.56,5.66,47.21,1.73,7.63-1.95,15.22-4.99,21.79-9.37,1.14-.89,2.83-.66,3.64.56.68,1.01.52,2.35-.32,3.18-1.67,1.66-3.33,2.96-5.16,4.34-20.42,14.89-45.71,16.39-69.74,11.33-8.27-1.58-16.29-3.7-24.47-5.13-11.85-1.93-23.73-3.59-35.73-3.34-7.59.21-22.94,2.8-25.78,10.69-.07.78-.24.73.77,1.25,2.16.81,5.14.94,7.45.54,1.81-.41,3.15-1.14,3.22-2.37,0-.07-.01-.18-.45-.26-3.39-.19-3.44-4.94,0-5h0Z"/>
  <path class="cls-2" d="M397.11,278.5c18.36-1.68,29.63,36.33,36.64,31.01,1.77-1.12,3.38-3.04,4.88-4.69,1.86-2.08,5.25.05,4.24,2.6-2.18,6.45-8.45,13.18-16.02,8.98-2.94-1.67-4.82-3.91-6.71-6.39-3.21-4.29-5.72-8.77-8.56-13.14-3.51-5.36-8.15-12.59-14.48-13.37-3.04-.29-3.04-4.72,0-5h0Z"/>
  <path class="cls-1" d="M332.13,328.14c4.4-2.73,10.53-1.77,13.71,2.42,1.28,1.7,1.78,4.07,2.09,5.95,1.36,11.41.13,22.99,1.8,34.28,2.32,17.61,10.52,27.86,28.9,28.9,1.38.1,2.41,1.31,2.31,2.69-.1,1.26-1.12,2.24-2.35,2.31-4.37.26-8.9,0-13.34-1.28-14.48-3.83-21.56-17.65-23.37-31.48-1.33-8.7-1.11-17.33-.86-25.64.06-3.78.41-7.77-.3-11.39.03-.68-1.15-1.91-2.18-2.32-1.14-.55-2.79-.43-4.01-.06,0,0-1.73-.34-1.73-.34-1.97-.33-2.4-3.12-.67-4.05h0Z"/>
  <path class="cls-1" d="M254.86,370.35c-2.51-4.87-.66-10.71,4.62-12.71,1.87-.6,3.17-.48,4.86-.38,4.88.51,9.2,1.57,13.87,1.9,8.98.76,15.15-2.04,17.5-10.76,2.79-8.52-5.05-12.73-12.27-14.24-4.17-.91-8.63-1.14-12.89-.73-3.09.33-6.08.86-8.67,2.42-.88.6-1.27,1.03-1.61,1.73-1.45,2.59-5.36.93-4.56-1.89,2.05-5.83,8.64-7.54,13.93-8.66,10.21-1.56,21.83-.73,29.86,6.66,8.96,8.62,3.95,24.71-6,30.41-7.26,4-15.71,2.76-23.28,1.06-3.07-.64-5.96-1.6-8.79-1.66-.02,0,.04-.06-.05-.01l-.25.12c-1.96.72-2.3,2.79-1.74,4.64,0,0,.02,1.03.02,1.03.07,2.55-3.47,3.38-4.55,1.1h0Z"/>
  <path class="cls-1" d="M242.26,344.48c1.38-1.68,2.96-3.77,2.62-5.85-1.03-4.2-6.98-5.94-10.83-5.82-7.13.14-13.77,4.3-15.09,11.56-.51,2.24.45,4.24,1.84,6.14,1.47,1.93,3.44,3.83,5.6,5.68,9.3,7.85,25.83,18.43,20.06,33.2-3.75,10.56-14.06,14.08-24.31,13.38-3.34-.21-6.47-.52-9.79-1.37-4.87-1.89-9.44-3.97-12.96-8.05-2.88-3.31-3.83-8.26-1.56-12.5,2.76-6.07,10.48-8.9,16.55-6.45,3.54,1.18,5.51,4.11,8.22,6.39,21.56,18.19,63.1,27.84,90.86,33.03,70.94,12.13,143.97,15.39,215.98,13.51,23.89-1.01,47.99-2.84,71.31-7.96,10.17-2.47,27.83-6.75,33.62-15.25,4.19-6.77-16.19-6.13-19.73-5.92-11.82.63-23.67,2.65-35.33,4.96-71.22,14.22-138.11,44.59-209.53,58.21-14.92,2.59-76.56,16.13-76.72-8,.05-5.77,3.4-10.07,8.35-12.66,25.07-12.56,98.25,5.09,127.21,11.2,16.98,3.35,133.2,30.58,123.32-3.14-1.35-3.56-4.7-4.61-8.65-4.72-3.26-.29-8.4,1.4-7.21,5.47.58,1.19,2.11,1.87,3.48,2.03.49.06.98,0,1.16-.06.09-.02.06-.05-.08.1-.15.14-.27.5-.25.63.06-3.29,4.93-3.3,5,0,.08,1.73-1.44,3.59-3.01,3.99-4.1,1.21-8.94-.67-10.89-4.56-1.31-3.04-.63-6.66,1.65-9.12,4.88-5.09,15.19-4.64,20.37-.34,2.94,2.48,4.2,6.33,4.25,10.04.35,23.44-43.1,18.68-58.57,17.45-36.1-3.47-71.76-12.38-107.29-19.27-17.72-3.29-35.52-6.19-53.48-7.32-8.82-.48-17.68-.67-26.3.91-5.56,1.05-13.12,3.61-12.48,10.14,1.7,8.61,26.24,6.56,33.31,6.01,84.52-8.83,162.02-47.51,244.85-64.28,12.04-2.42,24.09-4.52,36.43-5.2,6.5-.24,12.8-.39,19.32,1.5,6.94,1.91,11.47,8.25,7.4,15.6-2.71,4.73-7.49,7.71-11.92,10.08-60.74,29.45-246.89,16.7-317.03,3.71-29.33-5.47-71.8-15.38-94.69-34.79-1.99-1.43-3.45-3.98-5.77-4.91-2.57-1-5.65.17-6.67,2.74-1.09,2.48.49,4.4,2.91,6.95,1.42,1.63,5.32,4.09,6.4,4.74,9.67,3.39,21.7,1.24,24.74-9.56,1.92-4.86-1.41-9.4-4.77-12.74-4.03-4.05-8.91-7.5-13.33-11.43-5.1-4.41-11.05-10.85-10.03-18.44,1.77-11.47,11.86-18.73,23.17-18.31,9.23-.04,21,8.16,15.15,18.18-.94,1.61-2.13,2.88-3.35,4.01-2.3,2.12-5.69-1.14-3.54-3.54h0Z"/>
  <path class="cls-3" d="M484.85,388.21c-.06-.11-.34-.02-.27-.15,1.16-3.46.76-7.55.67-11.34-.84-14.69-3.51-31.19-4.23-45.93,0,0,4.84.31,4.84.31-3.64,11.3-7.72,22.44-12.45,33.36-3.76,8.15-10.73,24.8-18.76,28.93-1.82.98-5.75,1.31-5.69-1.85.06-1.07.8-1.94,1.78-2.2,0,0,.96-.25.96-.25.18-.05.44,0,.85-.24,10.75-6.89,24.18-45.93,28.54-59.26.42-1.32,1.83-2.05,3.15-1.62.91.29,1.53,1.06,1.69,1.93,1.6,5.05,2.74,10.14,3.72,15.29,1.88,10.37,3.1,20.92,2.82,31.5-.32,5-.57,16.45-7.63,16.54-3.31-.09-3.29-4.92,0-5h0Z"/>
  <path class="cls-5" d="M458.1,363.8c4.11-11.22,32.11,10.12,37.49-6.74"/>
  <path class="cls-3" d="M591.54,388.22c10.33-3.23,25.78-47.27,29.4-58.66.76-2.44,4.41-2.21,4.84.31,4.46,15.21,6.81,30.9,6.56,46.79-.34,4.85-.43,13.63-5.57,16.17-1.87.85-4.54.29-4.57-2.13,0-1.38,1.12-2.5,2.5-2.5-.06-.11-.34-.02-.28-.16.03-.13.19-.45.29-.89.73-3.27.5-6.93.38-10.44-.45-8.74-2.05-21.6-2.94-30.48-.53-5.12-1.01-10.28-1.27-15.45,0,0,4.84.31,4.84.31-3.6,11.19-7.69,22.2-12.43,32.99-3.69,8.12-7.45,16.32-13.02,23.47-2.27,2.71-5.16,5.85-9.18,5.64-1.38-.07-2.44-1.25-2.37-2.63.07-1.45,1.4-2.55,2.84-2.35h0Z"/>
  <path class="cls-5" d="M597.93,363.8c4.11-11.22,32.11,10.12,37.49-6.74"/>
  <path class="cls-3" d="M701.84,372.38c.34,3.85-2.89,7.24-6.75,7.24-5.93.16-9.02-6.46-7.29-11.49,3.74-11.77,22.29-9.62,27.38.14,3.7,6.48,2.11,14.97-3.02,20.18-7.23,7.57-17.34,7.67-26.87,6.58-11.13-1.03-22.13-2.56-33.22-2.72-5.43-.07-10.89.26-15.76,1.68-1.84.62-3.76-1.18-3.28-3.05,1.63-6.72,5.35-12.39,9.24-17.85,7.39-10.18,16.61-19.62,24.88-29.05,3.84-4.49,8.1-9.24,10.53-14.49,0,0,3.14,3.09,3.14,3.09-7.72,2.27-15.62,1.56-23.34.67-3.76-.45-7.47-1.02-11.08-1.37-2.43-.18-4.98-.46-7.1.26-.17.1-.34.19-.47.33,0,.05-.01.08-.05.11,0,0-1.39,1.04-1.39,1.04-.97.73-2.35.54-3.09-.44-1.42-2.18,1.05-4.77,2.97-5.62,3.18-1.27,6.47-.88,9.58-.66,7.47.74,14.73,2.16,22.13,2.18,3.58.02,7.12-.31,10.36-1.29,1.33-.4,2.73.35,3.13,1.68.04,9.57-15.71,26.59-21.97,33.88-7.8,9.14-17.28,18.22-22.69,28.98,0,0-3.27-3.1-3.27-3.1,0,0,2.17-.79,2.17-.78.61-.25,1.53-.5,2.17-.66,0,0,2.19-.54,2.19-.54l2.18-.37c16.83-2.67,33.93.5,50.69.78,7.37.17,16.28-4.75,15.21-12.98-.41-2.9-2.26-5.19-5.08-6.35-3.63-1.53-10.73-1.51-10.15,3.96.18.81.64,1.41,1.38,1.43,1.03.07,1.49-.61,1.56-1.6.41-3.02,4.81-2.82,4.98.2h0Z"/>
  <path class="cls-3" d="M558.16,179.57c3.89-1.57,8.15,2.32,8.39,6.23.67,4.56-2.83,8.98-7.15,10.05-10.9,3.02-21.59-6.51-19.17-17.64,4.55-14.72,23.73-13.25,35.21-9.25,10.77,3.95,20.85,8.28,31.89,10.72,9.21,2.4,22.99,3.45,32.56,4.27,14.44,1.05,33.91,3.61,46.85-3.46,3.49-2.07,7.13-5.66,6.57-9.78-.02-.1-.06-.16-.01-.07.07.11.31.38.5.48.07.05.14.1.22.13.07.04.19.08.15.07-.09-.03-.15-.03-.3,0-1.5.3-2.24,2.41-2.83,3.76-4.51,11.61-4.98,24.22-6.48,36.53-1.76,17.03-5.27,33.98-10.61,50.29-3.5,10.95-7.73,21.69-12.54,32.28-4.12,8.15-11.3,25.89-21.95,26.09-4.82.19-8.99-3.94-7.02-8.88,1.88-4.38,6.37-5.9,10.47-5.75,4.73.14,8.4,2.8,12.9,3.84,13.42,3.39,27.46,4.36,41.28,5.1,6.95.32,13.87.51,20.78.37,3.62-.1,7.44-.74,10.68-2.09,8.59-2.93,13.27-14,6.92-17.98-4.01-2.83-11.28-4.06-13.27.8-.13.31-.08.75-.08,1.08.13,1.53,1.46,3.05,2.81,3.58,0,0,1.11.65,1.11.65,1.11.65,1.49,2.08.84,3.19-.42.72-1.17,1.13-1.95,1.16-3.29,0-5.88-1.83-7.67-4.38-3.05-4.41-1.59-10.83,2.58-13.99,6.07-4.73,14.64-3.76,20.95.19,10.93,6.93,8.91,21.59.2,29.5-6.2,5.85-14.73,7.95-22.92,7.99-7.22-.02-14.47-.57-21.61-1.22-14.26-1.48-28.64-3.28-42.58-7.19-2.17-.64-4.37-1.38-6.48-2.34-2.63-1.32-7-2.43-8.6,0-.03.09.03,0-.04-.25-.07-.25-.3-.44-.27-.41,1.4.35,2.59-.23,3.85-1.42,10.83-11.42,14.95-37.82,18.49-53.37,4.56-21.88,8.77-44.3,15.6-65.8,2.2-6.91,4.51-14.07,7.83-20.7,1.98-4.9,7.26-9.58,12.93-6.92,3.45,1.91,3.58,6.48,2.81,9.78-3.18,11.57-15.44,16.92-25.94,19.79-23.41,5.85-47.24,2.19-69.53-5.46-10.78-3.71-21.15-9.32-31.51-13.47-6.68-2.92-22.02-4.46-24.01,4.5-.05,4.23,4,7.13,7.89,5.94-.02.02-.12.14-.13.2,0,.06.07.02.19-.15.01-.02.03-.04.04-.07.01,0,.03-.12.04-.03.03.11.07.15.12.18.07.04.16,0,.23-.05.16-.12.34-.25.58-.46.23-.22.43-.56.19-1.11l-1.02-2.28c-.46-1.03,0-2.25,1.02-2.72h0Z"/>
  <path class="cls-2" d="M503.62,231.4c-6.27.13-9.32-7.11-8.77-12.41,0-.87.24-2.1.37-2.96,2.85-14.72,26.83-25.32,32.94-7.38,1.4,3.71,1.38,8.05.88,11.79-1.76,13.74-5.42,26.66-9.92,39.62-4.54,12.87-10.57,25.26-18.73,36.31-7.32,9.67-16.59,19.49-29.03,21.9-21.97,3.95-24.38-18.37-23.34-34.76,1.48-23.67,9.95-46.18,17.86-68.17.71-2.04,1.45-3.94,1.99-5.94,0,0,0,.04,0,.04,0,.02.02.07.02.06.01-.08.14.23.23.24.08.02-.1-.19-.5-.37-3.65-1.3-8.7-.63-12.25.9,0,0-.27.15-.27.15-.14.07-.15.11-.1-.16-1.07,3.12-5.69,1.64-4.76-1.52,1.55-4.1,6.96-5.51,10.73-6.44,5.19-1.16,13.21-.78,14.64,5.81.22,1.08.17,2.3-.04,3.37-.8,4.23-3.17,11.88-4.38,16.07-4.83,15.85-9.34,31.47-13.07,47.43-2.13,9.97-6.58,27.51.6,35.77,3.94,4.11,10.99,3.39,15.95,1.21,8.63-3.88,14.5-11.81,19.32-19.85,9.49-16.91,16.31-35.33,21.64-54.01,2.09-7.91,4.37-15.95,4.67-23.94-.39-2.61-.84-5.97-3.82-6.5-2.35-.58-4.77.18-6.98,1.31-3.65,1.88-6.67,4.79-7.89,8.69-.8,2.69-1.09,6.29,1.06,8.33.36.31.75.42,1.2.47,2.96.49,2.73,4.79-.26,4.96h0Z"/>
</svg>